<svg xmlns="http://www.w3.org/2000/svg" viewBox="0 0 100 100" width="100" height="100">
  <!-- Producto: tarta de frutillas -->
  <defs>
    <path id="frutilla" d="M0-6c3-3 8-1 7 4-1 3-4 6-7 7-3-1-6-4-7-7-1-5 4-7 7-4z"/>
  </defs>
  <g stroke="#4f2e18" stroke-width="3.5" stroke-linejoin="round" stroke-linecap="round">
    <path d="M10 54l6 24q2 7 9 7h50q7 0 9-7l6-24z" fill="#c98a4b"/>
    <ellipse cx="50" cy="54" rx="40" ry="15" fill="#d9a35e"/>
  </g>
  <ellipse cx="50" cy="54" rx="40" ry="15" fill="none" stroke="#b5773d" stroke-width="5" stroke-dasharray="1 6" stroke-linecap="round"/>
  <ellipse cx="50" cy="54" rx="31" ry="10" fill="#f8e3b0" stroke="#4f2e18" stroke-width="2.5"/>
  <g fill="#d9483e" stroke="#4f2e18" stroke-width="2" stroke-linejoin="round">
    <use href="#frutilla" transform="translate(36 52)"/>
    <use href="#frutilla" transform="translate(50 49)"/>
    <use href="#frutilla" transform="translate(64 52)"/>
    <use href="#frutilla" transform="translate(43 59)"/>
    <use href="#frutilla" transform="translate(58 59)"/>
  </g>
  <path d="M18 66h64" stroke="#b5773d" stroke-width="2.5" stroke-linecap="round" opacity=".5"/>
</svg>
